# Blender v3.6.1 OBJ File: ''
# www.blender.org
mtllib bom.mtl
o 円柱
v -0.000000 0.474962 1.000000
v -0.500000 0.046222 0.866025
v -0.000000 0.046222 1.000000
v -0.500000 0.474962 0.866025
v -0.866025 0.046222 0.500000
v -0.866025 0.474962 0.500000
v -1.000000 0.046222 -0.000000
v -1.000000 0.474962 -0.000000
v -0.866025 0.046222 -0.500000
v -0.866025 0.474962 -0.500000
v -0.500000 0.046222 -0.866025
v -0.500000 0.474962 -0.866025
v 0.000000 0.046222 -1.000000
v 0.000000 0.474962 -1.000000
v 0.500000 0.046222 -0.866025
v 0.500000 0.474962 -0.866025
v 0.866025 0.046222 -0.500000
v 0.866025 0.474962 -0.500000
v 1.000000 0.046222 0.000000
v 1.000000 0.474962 0.000000
v 0.866025 0.046222 0.500000
v 0.866025 0.474962 0.500000
v 0.500000 0.046222 0.866025
v 0.500000 0.474962 0.866025
vt 0.261338 0.971060
vt 0.241746 0.764668
vt 0.261338 0.764668
vt 0.241746 0.971060
vt 0.222154 0.764668
vt 0.222154 0.971060
vt 0.202563 0.764668
vt 0.202563 0.971060
vt 0.182971 0.764668
vt 0.182971 0.971060
vt 0.163379 0.764668
vt 0.163379 0.971060
vt 0.143787 0.764668
vt 0.143787 0.971060
vt 0.124195 0.764668
vt 0.124195 0.971060
vt 0.104603 0.764668
vt 0.104603 0.971060
vt 0.085012 0.764668
vt 0.085012 0.971060
vt 0.065420 0.764668
vt 0.499582 0.132240
vt 0.790859 0.300409
vt 0.790859 0.636747
vt 0.065420 0.971060
vt 0.045828 0.764668
vt 0.045828 0.971060
vt 0.026236 0.764668
vt 0.109081 0.797796
vt 0.066762 0.871094
vt 0.109081 0.944392
vt 0.667751 0.759855
vt 0.499582 0.804916
vt 0.331412 0.759855
vt 0.208304 0.636747
vt 0.163244 0.468578
vt 0.208304 0.300409
vt 0.331413 0.177300
vt 0.667751 0.177300
vt 0.835920 0.468578
vt 0.026236 0.971060
vt 0.151400 0.955731
vt 0.193719 0.944392
vt 0.224698 0.913413
vt 0.236037 0.871094
vt 0.224698 0.828775
vt 0.193719 0.797796
vt 0.151400 0.786456
vt 0.078102 0.828775
vt 0.078102 0.913413
vn -0.2588 0.0000 0.9659
vn -0.7071 0.0000 0.7071
vn -0.9659 0.0000 0.2588
vn -0.9659 -0.0000 -0.2588
vn -0.7071 -0.0000 -0.7071
vn -0.2588 -0.0000 -0.9659
vn 0.2588 0.0000 -0.9659
vn 0.7071 -0.0000 -0.7071
vn 0.9659 -0.0000 -0.2588
vn 0.9659 0.0000 0.2588
vn 0.0000 1.0000 -0.0000
vn 0.7071 0.0000 0.7071
vn 0.2588 0.0000 0.9659
vn 0.0000 -1.0000 0.0000
usemtl マテリアル
s 1
f 1/1/1 2/2/1 3/3/1
f 4/4/2 5/5/2 2/2/2
f 6/6/3 7/7/3 5/5/3
f 8/8/4 9/9/4 7/7/4
f 10/10/5 11/11/5 9/9/5
f 12/12/6 13/13/6 11/11/6
f 14/14/7 15/15/7 13/13/7
f 16/16/8 17/17/8 15/15/8
f 18/18/9 19/19/9 17/17/9
f 20/20/10 21/21/10 19/19/10
f 14/22/11 10/23/11 6/24/11
f 22/25/12 23/26/12 21/21/12
f 24/27/13 3/28/13 23/26/13
f 15/29/14 19/30/14 23/31/14
f 1/1/1 4/4/1 2/2/1
f 4/4/2 6/6/2 5/5/2
f 6/6/3 8/8/3 7/7/3
f 8/8/4 10/10/4 9/9/4
f 10/10/5 12/12/5 11/11/5
f 12/12/6 14/14/6 13/13/6
f 14/14/7 16/16/7 15/15/7
f 16/16/8 18/18/8 17/17/8
f 18/18/9 20/20/9 19/19/9
f 20/20/10 22/25/10 21/21/10
f 6/24/11 4/32/11 1/33/11
f 1/33/11 24/34/11 22/35/11
f 22/35/11 20/36/11 14/22/11
f 20/36/11 18/37/11 14/22/11
f 18/37/11 16/38/11 14/22/11
f 14/22/11 12/39/11 10/23/11
f 10/23/11 8/40/11 6/24/11
f 6/24/11 1/33/11 14/22/11
f 1/33/11 22/35/11 14/22/11
f 22/25/12 24/27/12 23/26/12
f 24/27/13 1/41/13 3/28/13
f 23/31/14 3/42/14 2/43/14
f 2/43/14 5/44/14 7/45/14
f 7/45/14 9/46/14 11/47/14
f 11/47/14 13/48/14 15/29/14
f 15/29/14 17/49/14 19/30/14
f 19/30/14 21/50/14 23/31/14
f 23/31/14 2/43/14 7/45/14
f 7/45/14 11/47/14 23/31/14
f 11/47/14 15/29/14 23/31/14
