# Blender 3.6.1
# www.blender.org
mtllib map.mtl
o Cube
v 1.000000 1.000000 -1.000000
v 1.000000 -1.000000 -1.000000
v 1.000000 1.000000 1.000000
v 1.000000 -1.000000 1.000000
v -1.000000 1.000000 -1.000000
v -1.000000 -1.000000 -1.000000
v -1.000000 1.000000 1.000000
v -1.000000 -1.000000 1.000000
vn -0.0000 1.0000 -0.0000
vn -0.0000 -0.0000 1.0000
vn -1.0000 -0.0000 -0.0000
vn -0.0000 -1.0000 -0.0000
vn 1.0000 -0.0000 -0.0000
vn -0.0000 -0.0000 -1.0000
vt 0.941406 0.359375
vt 0.691406 0.609375
vt 0.691406 0.359375
vt 0.266800 0.485747
vt 0.016800 0.735747
vt 0.016800 0.485747
vt 0.266677 0.741880
vt 0.016677 0.991880
vt 0.016677 0.741880
vt 0.943578 0.103574
vt 0.693578 0.353574
vt 0.693578 0.103574
vt 0.270460 0.232093
vt 0.020460 0.482093
vt 0.020460 0.232093
vt 0.525357 0.740496
vt 0.275357 0.990496
vt 0.275357 0.740496
vt 0.941406 0.609375
vt 0.266800 0.735747
vt 0.266677 0.991880
vt 0.943578 0.353574
vt 0.270460 0.482093
vt 0.525357 0.990496
s 0
usemtl Material
f 5/1/1 3/2/1 1/3/1
f 3/4/2 8/5/2 4/6/2
f 7/7/3 6/8/3 8/9/3
f 2/10/4 8/11/4 6/12/4
f 1/13/5 4/14/5 2/15/5
f 5/16/6 2/17/6 6/18/6
f 5/1/1 7/19/1 3/2/1
f 3/4/2 7/20/2 8/5/2
f 7/7/3 5/21/3 6/8/3
f 2/10/4 4/22/4 8/11/4
f 1/13/5 3/23/5 4/14/5
f 5/16/6 1/24/6 2/17/6
