# Blender v3.2.1 OBJ File: 'TankHad.blend11'
# www.blender.org
mtllib TankHad.mtl
o 立方体.002_立方体.001
v 0.529651 -0.397973 -0.527859
v 0.203652 0.070239 -0.278062
v 0.529651 -0.397973 0.527859
v 0.203652 0.070239 0.278062
v -0.513243 -0.397973 -0.527859
v -0.203089 0.069893 -0.279275
v -0.513243 -0.397973 0.527859
v -0.203089 0.069893 0.279275
v 0.435139 -0.142199 -0.456173
v 0.435139 -0.142199 0.456173
v -0.405544 -0.142199 0.461687
v -0.405544 -0.142199 -0.461687
v -0.395752 -0.145502 0.091764
v -0.874573 -0.145502 0.091764
v -0.422379 -0.210389 0.064887
v -0.874573 -0.210389 0.064887
v -0.434893 -0.237266 0.000000
v -0.874573 -0.237266 0.000000
v -0.422379 -0.210389 -0.064887
v -0.874573 -0.210389 -0.064887
v -0.395752 -0.145502 -0.091764
v -0.874573 -0.145502 -0.091764
v -0.338337 -0.080615 -0.064887
v -0.874573 -0.080615 -0.064887
v -0.311838 -0.053738 0.000000
v -0.874573 -0.053738 0.000000
v -0.338337 -0.080615 0.064887
v -0.874573 -0.080615 0.064887
vt 0.527344 0.000000
vt 0.402344 0.250000
vt 0.402344 0.000000
vt 0.527344 0.250000
vt 0.402344 0.500000
vt 0.527344 0.500000
vt 0.402344 0.750000
vt 0.527344 1.000000
vt 0.402344 1.000000
vt 0.277344 0.500000
vt 0.027344 0.750000
vt 0.027344 0.500000
vt 0.777344 0.500000
vt 0.527344 0.750000
vt 0.277344 1.000000
vt 0.277344 0.750000
vt 0.277344 0.250000
vt 0.277344 0.000000
vt 0.738708 0.395100
vt 0.695455 0.222087
vt 0.738708 0.222087
vt 0.695455 0.395100
vt 0.652202 0.222087
vt 0.608948 0.395100
vt 0.608948 0.222087
vt 0.918977 0.222036
vt 0.876138 0.393391
vt 0.876138 0.222036
vt 0.833300 0.393391
vt 0.833300 0.222036
vt 0.790461 0.393391
vt 0.790461 0.222036
vt 0.848621 0.078200
vt 0.872711 0.136359
vt 0.708211 0.136359
vt 0.747622 0.222036
vt 0.970052 0.391927
vt 0.928385 0.225260
vt 0.970052 0.225260
vt 0.777344 0.750000
vt 0.652202 0.395100
vt 0.918977 0.393391
vt 0.848621 0.194519
vt 0.790461 0.218609
vt 0.732301 0.194519
vt 0.732301 0.078200
vt 0.790461 0.054109
vt 0.747622 0.393391
vt 0.928385 0.391927
vn 0.6761 0.7368 0.0000
vn 0.0050 0.6457 0.7636
vn -0.7233 0.6905 0.0000
vn 0.0050 0.6457 -0.7636
vn 0.0000 -1.0000 0.0000
vn -0.0009 1.0000 0.0000
vn 0.0000 0.2505 -0.9681
vn -0.9216 0.3881 0.0000
vn 0.0000 0.2505 0.9681
vn 0.9380 0.3466 0.0000
vn 0.0000 -0.3827 0.9239
vn 0.0000 -0.9239 0.3827
vn 0.0000 -0.9239 -0.3827
vn 0.0000 -0.3827 -0.9239
vn -0.0000 0.3827 -0.9239
vn -0.0000 0.9239 -0.3827
vn -1.0000 0.0000 0.0000
vn -0.0000 0.9239 0.3827
vn -0.0000 0.3827 0.9239
vn 0.0017 0.6511 0.7590
vn 0.0017 0.6511 -0.7590
vn 0.0063 0.2720 -0.9623
vn 0.0063 0.2720 0.9623
usemtl マテリアル
s off
f 2/1/1 10/2/1 9/3/1
f 4/4/2 11/5/2 10/2/2
f 8/6/3 12/7/3 11/5/3
f 12/7/4 2/8/4 9/9/4
f 7/10/5 1/11/5 3/12/5
f 4/13/6 6/14/6 8/6/6
f 12/7/7 1/15/7 5/16/7
f 11/5/8 5/16/8 7/10/8
f 3/17/9 11/5/9 7/10/9
f 9/3/10 3/17/10 1/18/10
f 14/19/11 15/20/11 13/21/11
f 16/22/12 17/23/12 15/20/12
f 17/23/13 20/24/13 19/25/13
f 19/26/14 22/27/14 21/28/14
f 21/28/15 24/29/15 23/30/15
f 23/30/16 26/31/16 25/32/16
f 20/33/17 18/34/17 26/35/17
f 26/31/18 27/36/18 25/32/18
f 28/37/19 13/38/19 27/39/19
f 2/1/1 4/4/1 10/2/1
f 4/4/20 8/6/20 11/5/20
f 8/6/3 6/14/3 12/7/3
f 12/7/21 6/14/21 2/8/21
f 7/10/5 5/16/5 1/11/5
f 4/13/6 2/40/6 6/14/6
f 12/7/22 9/9/22 1/15/22
f 11/5/8 12/7/8 5/16/8
f 3/17/23 10/2/23 11/5/23
f 9/3/10 10/2/10 3/17/10
f 14/19/11 16/22/11 15/20/11
f 16/22/12 18/41/12 17/23/12
f 17/23/13 18/41/13 20/24/13
f 19/26/14 20/42/14 22/27/14
f 21/28/15 22/27/15 24/29/15
f 23/30/16 24/29/16 26/31/16
f 18/34/17 16/43/17 26/35/17
f 16/43/17 14/44/17 26/35/17
f 14/44/17 28/45/17 26/35/17
f 26/35/17 24/46/17 22/47/17
f 22/47/17 20/33/17 26/35/17
f 26/31/18 28/48/18 27/36/18
f 28/37/19 14/49/19 13/38/19
