# Blender v3.2.1 OBJ File: ''
# www.blender.org
mtllib parachute.mtl
o çƒ_çƒ.001
v -0.693520 -0.213308 -0.693520
v -0.653281 -0.025715 -0.653282
v 0.653282 -0.025715 -0.653281
v 0.693520 -0.213308 -0.693520
v -0.137950 0.572387 -0.137950
v -0.000000 0.591602 0.000000
v 0.137950 0.572387 -0.137950
v -0.270598 0.515481 -0.270598
v 0.270598 0.515481 -0.270598
v -0.392847 0.423071 -0.392847
v 0.392848 0.423071 -0.392847
v -0.500000 0.298709 -0.500000
v 0.500000 0.298709 -0.500000
v -0.587938 0.147172 -0.587938
v 0.587938 0.147172 -0.587938
v 0.587938 0.147172 0.587938
v 0.653281 -0.025715 0.653282
v 0.693520 -0.213308 0.693520
v 0.137950 0.572387 0.137950
v 0.270598 0.515481 0.270598
v 0.392848 0.423071 0.392848
v 0.500000 0.298709 0.500000
v -0.270598 0.515481 0.270598
v -0.392848 0.423071 0.392848
v -0.500000 0.298708 0.500000
v -0.587938 0.147172 0.587938
v -0.653282 -0.025715 0.653282
v -0.693520 -0.213308 0.693520
v -0.137950 0.572387 0.137950
v -0.000000 -1.405862 -0.000000
v -0.103059 -1.178743 -0.000000
v -0.000000 -1.177867 -0.097590
v 0.103059 -1.178743 -0.000000
v -0.000000 -1.177867 0.097590
v -0.000000 -1.343710 -0.000000
vt 0.750000 0.625000
vt 0.500000 0.562500
vt 0.750000 0.562500
vt 0.750000 0.937500
vt 0.625000 1.000000
vt 0.500000 0.937500
vt 0.500000 0.875000
vt 0.750000 0.875000
vt 0.750000 0.812500
vt 0.500000 0.812500
vt 0.500000 0.750000
vt 0.750000 0.750000
vt 0.750000 0.687500
vt 0.500000 0.687500
vt 0.500000 0.625000
vt 0.250000 0.687500
vt 0.250000 0.625000
vt 0.250000 0.562500
vt 0.375000 1.000000
vt 0.250000 0.937500
vt 0.250000 0.875000
vt 0.250000 0.812500
vt 0.250000 0.750000
vt 0.000000 0.812500
vt 0.000000 0.750000
vt 0.000000 0.687500
vt 0.000000 0.625000
vt 0.000000 0.562500
vt 0.125000 1.000000
vt 0.000000 0.937500
vt 0.000000 0.875000
vt 1.000000 0.625000
vt 1.000000 0.562500
vt 1.000000 0.937500
vt 0.875000 1.000000
vt 1.000000 0.875000
vt 1.000000 0.812500
vt 1.000000 0.750000
vt 1.000000 0.687500
vt 0.158203 0.125000
vt 0.408203 0.125000
vt 0.408203 0.250000
vt 0.419922 0.011719
vt 0.669922 0.011719
vt 0.669922 0.136719
vt 0.419922 0.261719
vt 0.669922 0.261719
vt 0.669922 0.386719
vt 0.386908 0.245705
vt 0.136909 0.246464
vt 0.136529 0.121465
vt 0.132812 0.132812
vt 0.007812 0.257812
vt 0.007812 0.132812
vt 0.794922 0.386719
vt 0.419922 0.386719
vt 0.669922 0.511719
vt 0.158203 0.250000
vt 0.408203 0.375000
vt 0.794922 0.136719
vt 0.007812 0.007812
vt 0.419922 0.136719
vt 0.158203 0.000000
vt 0.408203 0.000000
vt 0.132812 0.257812
vt 0.794922 0.261719
vt 0.132812 0.007812
vn 0.0000 0.2097 -0.9778
vn 0.0000 0.9904 -0.1380
vn 0.0000 0.9190 -0.3943
vn 0.0000 0.7977 -0.6030
vn 0.0000 0.6527 -0.7576
vn 0.0000 0.5019 -0.8649
vn 0.0000 0.3535 -0.9354
vn 0.9354 0.3535 0.0000
vn 0.9778 0.2097 0.0000
vn 0.1380 0.9904 0.0000
vn 0.3943 0.9190 0.0000
vn 0.6030 0.7977 0.0000
vn 0.7576 0.6527 0.0000
vn 0.8649 0.5019 0.0000
vn 0.0000 0.7977 0.6030
vn -0.0000 0.6527 0.7576
vn -0.0000 0.5019 0.8649
vn 0.0000 0.3535 0.9354
vn 0.0000 0.2097 0.9778
vn 0.0000 0.9904 0.1380
vn 0.0000 0.9190 0.3943
vn -0.9778 0.2097 -0.0000
vn -0.1380 0.9904 0.0000
vn -0.3943 0.9190 0.0000
vn -0.6030 0.7977 -0.0000
vn -0.7576 0.6527 -0.0000
vn -0.8649 0.5019 0.0000
vn -0.9354 0.3535 -0.0000
vn -0.8929 -0.4052 0.1962
vn -0.2358 -0.3824 -0.8934
vn 0.8929 -0.4052 -0.1962
vn 0.2358 -0.3824 0.8934
vn 0.5638 0.5671 -0.6004
vn 0.5651 0.5643 -0.6019
vn 0.6303 0.3937 -0.6691
vn -0.5638 0.5671 -0.6004
vn -0.5651 0.5643 -0.6019
vn -0.4973 0.6858 -0.5313
vn -0.2358 -0.3824 0.8934
vn 0.2358 -0.3824 -0.8934
vn -0.5651 0.5643 0.6019
vn -0.5638 0.5671 0.6004
vn -0.4973 0.6858 0.5313
vn 0.5651 0.5643 0.6019
vn 0.5638 0.5671 0.6004
vn 0.6303 0.3937 0.6691
vn 0.8929 -0.4052 0.1962
vn -0.8929 -0.4052 -0.1962
vn 0.4973 0.6858 -0.5313
vn -0.6303 0.3937 -0.6691
vn -0.6303 0.3937 0.6691
vn 0.4973 0.6858 0.5313
usemtl None
s 1
f 2/1/1 4/2/1 1/3/1
f 5/4/2 6/5/2 7/6/2
f 5/4/3 9/7/3 8/8/3
f 10/9/4 9/7/4 11/10/4
f 10/9/5 13/11/5 12/12/5
f 14/13/6 13/11/6 15/14/6
f 2/1/7 15/14/7 3/15/7
f 3/15/8 16/16/8 17/17/8
f 3/15/9 18/18/9 4/2/9
f 7/6/10 6/19/10 19/20/10
f 7/6/11 20/21/11 9/7/11
f 11/10/12 20/21/12 21/22/12
f 11/10/13 22/23/13 13/11/13
f 13/11/14 16/16/14 15/14/14
f 20/21/15 24/24/15 21/22/15
f 22/23/16 24/24/16 25/25/16
f 22/23/17 26/26/17 16/16/17
f 17/17/18 26/26/18 27/27/18
f 17/17/19 28/28/19 18/18/19
f 19/20/20 6/29/20 29/30/20
f 19/20/21 23/31/21 20/21/21
f 27/32/22 1/3/22 28/33/22
f 29/34/23 6/35/23 5/4/23
f 29/34/24 8/8/24 23/36/24
f 23/36/25 10/9/25 24/37/25
f 25/38/26 10/9/26 12/12/26
f 25/38/27 14/13/27 26/39/27
f 26/39/28 2/1/28 27/32/28
f 30/40/29 31/41/29 1/42/29
f 30/43/30 32/44/30 4/45/30
f 30/46/31 33/47/31 18/48/31
f 30/49/32 34/50/32 28/51/32
f 31/52/33 34/53/34 35/54/35
f 33/47/36 34/55/37 18/48/38
f 30/56/39 18/48/39 34/57/39
f 30/58/40 1/42/40 32/59/40
f 32/60/41 33/47/42 4/45/43
f 32/61/44 31/52/45 35/54/46
f 30/62/47 4/45/47 33/47/47
f 30/63/48 28/64/48 31/41/48
f 2/1/1 3/15/1 4/2/1
f 5/4/3 7/6/3 9/7/3
f 10/9/4 8/8/4 9/7/4
f 10/9/5 11/10/5 13/11/5
f 14/13/6 12/12/6 13/11/6
f 2/1/7 14/13/7 15/14/7
f 3/15/8 15/14/8 16/16/8
f 3/15/9 17/17/9 18/18/9
f 7/6/11 19/20/11 20/21/11
f 11/10/12 9/7/12 20/21/12
f 11/10/13 21/22/13 22/23/13
f 13/11/14 22/23/14 16/16/14
f 20/21/15 23/31/15 24/24/15
f 22/23/16 21/22/16 24/24/16
f 22/23/17 25/25/17 26/26/17
f 17/17/18 16/16/18 26/26/18
f 17/17/19 27/27/19 28/28/19
f 19/20/21 29/30/21 23/31/21
f 27/32/22 2/1/22 1/3/22
f 29/34/24 5/4/24 8/8/24
f 23/36/25 8/8/25 10/9/25
f 25/38/26 24/37/26 10/9/26
f 25/38/27 12/12/27 14/13/27
f 26/39/28 14/13/28 2/1/28
f 31/52/33 28/65/49 34/53/34
f 33/47/36 35/66/50 34/55/37
f 32/60/41 35/66/51 33/47/42
f 32/61/44 1/67/52 31/52/45
